# Blender v2.81 (sub 16) OBJ File: 'CrainM.blend'
# www.blender.org
mtllib Crain_Line.mtl
o Cube.002_Cube.013
v -9.076641 1.610414 -0.799470
v 26.779264 1.807787 -0.799470
v -9.076641 1.775375 -0.799470
v 26.779264 1.972749 -0.799470
v 0.301103 1.868038 -0.799470
v 0.301103 1.703076 -0.799470
v -9.928277 1.277245 -0.836326
v -10.006917 1.422096 -0.843156
v -10.232921 1.049002 -0.814421
v -10.381167 1.121202 -0.809651
v -10.294142 0.781777 -0.833505
v -10.453560 0.740327 -0.824554
vt 0.660951 0.000208
vt 0.660952 0.507802
vt 0.326280 0.507862
vt 0.326264 0.000268
vt 0.660953 1.001322
vt 0.326296 1.001381
vt 0.636826 0.631259
vt 0.343591 0.631259
vt 0.343591 0.475993
vt 0.636826 0.475993
vt 0.343591 0.407176
vt 0.636826 0.407176
vt 0.343591 0.357161
vt 0.636826 0.357161
vn 0.0000 0.0000 1.0000
vn -0.0488 0.0096 0.9988
vn 0.0408 0.0521 0.9978
vn 0.0385 -0.0602 0.9974
usemtl Material.003
s off
f 1/1/1 6/2/1 5/3/1 3/4/1
f 6/2/1 2/5/1 4/6/1 5/3/1
f 1/7/2 3/8/2 8/9/2 7/10/2
f 7/10/3 8/9/3 10/11/3 9/12/3
f 9/12/4 10/11/4 12/13/4 11/14/4
